<svg width="1200" height="800" viewBox="0 0 1200 800" fill="none" xmlns="http://www.w3.org/2000/svg">
  <!-- Background -->
  <rect width="1200" height="800" rx="8" fill="#FFFFFF" />
  
  <!-- Header -->
  <rect width="1200" height="64" fill="#FBF7F7" />
  <rect x="24" y="16" width="180" height="32" rx="4" fill="#F8D7DA" />
  <rect x="1000" y="16" width="32" height="32" rx="16" fill="#F8D7DA" />
  <rect x="1048" y="16" width="32" height="32" rx="16" fill="#F8D7DA" />
  <rect x="1096" y="16" width="80" height="32" rx="16" fill="#F8D7DA" />
  
  <!-- Sidebar -->
  <rect width="240" height="736" y="64" fill="#FBF7F7" />
  <rect x="24" y="96" width="192" height="40" rx="4" fill="#F8D7DA" />
  <rect x="24" y="152" width="192" height="40" rx="4" fill="#FFFFFF" />
  <rect x="24" y="208" width="192" height="40" rx="4" fill="#FFFFFF" />
  <rect x="24" y="264" width="192" height="40" rx="4" fill="#FFFFFF" />
  <rect x="24" y="320" width="192" height="40" rx="4" fill="#FFFFFF" />
  <rect x="24" y="376" width="192" height="40" rx="4" fill="#FFFFFF" />
  
  <!-- Main Content -->
  <rect x="264" y="88" width="912" height="56" rx="4" fill="#FFFFFF" />
  <rect x="280" y="104" width="240" height="24" rx="4" fill="#F8D7DA" />
  <rect x="540" y="104" width="120" height="24" rx="4" fill="#D1E7DD" />
  <rect x="680" y="104" width="120" height="24" rx="4" fill="#FFF8E7" />
  <rect x="820" y="104" width="120" height="24" rx="4" fill="#D8B4E2" />
  
  <!-- Stats Cards -->
  <rect x="264" y="160" width="280" height="160" rx="8" fill="#FFFFFF" stroke="#EEEEEE" stroke-width="1" />
  <rect x="288" y="184" width="160" height="24" rx="4" fill="#F8D7DA" />
  <rect x="288" y="224" width="80" height="64" rx="4" fill="#F8D7DA" />
  <rect x="384" y="224" width="136" height="16" rx="4" fill="#EEEEEE" />
  <rect x="384" y="248" width="96" height="16" rx="4" fill="#EEEEEE" />
  <rect x="384" y="272" width="120" height="16" rx="4" fill="#EEEEEE" />
  
  <rect x="560" y="160" width="280" height="160" rx="8" fill="#FFFFFF" stroke="#EEEEEE" stroke-width="1" />
  <rect x="584" y="184" width="160" height="24" rx="4" fill="#D1E7DD" />
  <rect x="584" y="224" width="80" height="64" rx="4" fill="#D1E7DD" />
  <rect x="680" y="224" width="136" height="16" rx="4" fill="#EEEEEE" />
  <rect x="680" y="248" width="96" height="16" rx="4" fill="#EEEEEE" />
  <rect x="680" y="272" width="120" height="16" rx="4" fill="#EEEEEE" />
  
  <rect x="856" y="160" width="320" height="160" rx="8" fill="#FFFFFF" stroke="#EEEEEE" stroke-width="1" />
  <rect x="880" y="184" width="160" height="24" rx="4" fill="#D8B4E2" />
  <rect x="880" y="224" width="80" height="64" rx="4" fill="#D8B4E2" />
  <rect x="976" y="224" width="176" height="16" rx="4" fill="#EEEEEE" />
  <rect x="976" y="248" width="136" height="16" rx="4" fill="#EEEEEE" />
  <rect x="976" y="272" width="160" height="16" rx="4" fill="#EEEEEE" />
  
  <!-- Table -->
  <rect x="264" y="336" width="912" height="400" rx="8" fill="#FFFFFF" stroke="#EEEEEE" stroke-width="1" />
  <rect x="288" y="360" width="240" height="24" rx="4" fill="#F8D7DA" />
  <rect x="288" y="400" width="864" height="1" fill="#EEEEEE" />
  
  <rect x="288" y="416" width="200" height="16" rx="4" fill="#EEEEEE" />
  <rect x="504" y="416" width="120" height="16" rx="4" fill="#EEEEEE" />
  <rect x="640" y="416" width="120" height="16" rx="4" fill="#EEEEEE" />
  <rect x="776" y="416" width="120" height="16" rx="4" fill="#EEEEEE" />
  <rect x="912" y="416" width="120" height="16" rx="4" fill="#EEEEEE" />
  <rect x="1048" y="416" width="80" height="24" rx="4" fill="#F8D7DA" />
  
  <rect x="288" y="448" width="864" height="1" fill="#EEEEEE" />
  
  <rect x="288" y="464" width="200" height="16" rx="4" fill="#EEEEEE" />
  <rect x="504" y="464" width="120" height="16" rx="4" fill="#EEEEEE" />
  <rect x="640" y="464" width="120" height="16" rx="4" fill="#EEEEEE" />
  <rect x="776" y="464" width="120" height="16" rx="4" fill="#EEEEEE" />
  <rect x="912" y="464" width="120" height="16" rx="4" fill="#EEEEEE" />
  <rect x="1048" y="464" width="80" height="24" rx="4" fill="#D1E7DD" />
  
  <rect x="288" y="496" width="864" height="1" fill="#EEEEEE" />
  
  <rect x="288" y="512" width="200" height="16" rx="4" fill="#EEEEEE" />
  <rect x="504" y="512" width="120" height="16" rx="4" fill="#EEEEEE" />
  <rect x="640" y="512" width="120" height="16" rx="4" fill="#EEEEEE" />
  <rect x="776" y="512" width="120" height="16" rx="4" fill="#EEEEEE" />
  <rect x="912" y="512" width="120" height="16" rx="4" fill="#EEEEEE" />
  <rect x="1048" y="512" width="80" height="24" rx="4" fill="#F8D7DA" />
  
  <rect x="288" y="544" width="864" height="1" fill="#EEEEEE" />
  
  <rect x="288" y="560" width="200" height="16" rx="4" fill="#EEEEEE" />
  <rect x="504" y="560" width="120" height="16" rx="4" fill="#EEEEEE" />
  <rect x="640" y="560" width="120" height="16" rx="4" fill="#EEEEEE" />
  <rect x="776" y="560" width="120" height="16" rx="4" fill="#EEEEEE" />
  <rect x="912" y="560" width="120" height="16" rx="4" fill="#EEEEEE" />
  <rect x="1048" y="560" width="80" height="24" rx="4" fill="#D1E7DD" />
  
  <rect x="288" y="592" width="864" height="1" fill="#EEEEEE" />
  
  <rect x="288" y="608" width="200" height="16" rx="4" fill="#EEEEEE" />
  <rect x="504" y="608" width="120" height="16" rx="4" fill="#EEEEEE" />
  <rect x="640" y="608" width="120" height="16" rx="4" fill="#EEEEEE" />
  <rect x="776" y="608" width="120" height="16" rx="4" fill="#EEEEEE" />
  <rect x="912" y="608" width="120" height="16" rx="4" fill="#EEEEEE" />
  <rect x="1048" y="608" width="80" height="24" rx="4" fill="#FFF8E7" />
  
  <rect x="288" y="640" width="864" height="1" fill="#EEEEEE" />
  
  <rect x="288" y="656" width="200" height="16" rx="4" fill="#EEEEEE" />
  <rect x="504" y="656" width="120" height="16" rx="4" fill="#EEEEEE" />
  <rect x="640" y="656" width="120" height="16" rx="4" fill="#EEEEEE" />
  <rect x="776" y="656" width="120" height="16" rx="4" fill="#EEEEEE" />
  <rect x="912" y="656" width="120" height="16" rx="4" fill="#EEEEEE" />
  <rect x="1048" y="656" width="80" height="24" rx="4" fill="#D1E7DD" />
  
  <rect x="288" y="688" width="864" height="1" fill="#EEEEEE" />
</svg>
